<?xml version="1.0" encoding="UTF-8" standalone="no"?><svg xmlns="http://www.w3.org/2000/svg" xmlns:xlink= "http://www.w3.org/1999/xlink" width="600" height="390" aria-label="A chart." style="overflow: hidden;"><defs id="_ABSTRACT_RENDERER_ID_451"><clipPath id="_ABSTRACT_RENDERER_ID_452"><rect x="115" y="75" width="371" height="241"></rect></clipPath></defs><rect x="0" y="0" width="600" height="390" stroke="none" stroke-width="0" fill="#ffffff"></rect><g><text text-anchor="start" x="115" y="52.05" font-family="Arial" font-size="13" font-weight="bold" stroke="none" stroke-width="0" fill="#000000">Calculation time of choose_column</text><rect x="115" y="41" width="371" height="13" stroke="none" stroke-width="0" fill-opacity="0" fill="#ffffff"></rect></g><g><rect x="499" y="75" width="88" height="13" stroke="none" stroke-width="0" fill-opacity="0" fill="#ffffff"></rect><g><rect x="499" y="75" width="88" height="13" stroke="none" stroke-width="0" fill-opacity="0" fill="#ffffff"></rect><g><text text-anchor="start" x="530" y="86.05" font-family="Arial" font-size="13" stroke="none" stroke-width="0" fill="#222222">Line1</text></g><path d="M499,81.5L525,81.5" stroke="#3366cc" stroke-width="3" fill-opacity="1" fill="none"></path><circle cx="512" cy="81.5" r="4.5" stroke="none" stroke-width="0" fill="#3366cc"></circle></g></g><g><rect x="115" y="75" width="371" height="241" stroke="none" stroke-width="0" fill-opacity="0" fill="#ffffff"></rect><g clip-path="url(https://www.rapidtables.com/tools/line-graph.html#_ABSTRACT_RENDERER_ID_452)"><g><rect x="115" y="315" width="371" height="1" stroke="none" stroke-width="0" fill="#cccccc"></rect><rect x="115" y="267" width="371" height="1" stroke="none" stroke-width="0" fill="#cccccc"></rect><rect x="115" y="219" width="371" height="1" stroke="none" stroke-width="0" fill="#cccccc"></rect><rect x="115" y="171" width="371" height="1" stroke="none" stroke-width="0" fill="#cccccc"></rect><rect x="115" y="123" width="371" height="1" stroke="none" stroke-width="0" fill="#cccccc"></rect><rect x="115" y="75" width="371" height="1" stroke="none" stroke-width="0" fill="#cccccc"></rect><rect x="115" y="291" width="371" height="1" stroke="none" stroke-width="0" fill="#ebebeb"></rect><rect x="115" y="243" width="371" height="1" stroke="none" stroke-width="0" fill="#ebebeb"></rect><rect x="115" y="195" width="371" height="1" stroke="none" stroke-width="0" fill="#ebebeb"></rect><rect x="115" y="147" width="371" height="1" stroke="none" stroke-width="0" fill="#ebebeb"></rect><rect x="115" y="99" width="371" height="1" stroke="none" stroke-width="0" fill="#ebebeb"></rect></g><g><rect x="115" y="315" width="371" height="1" stroke="none" stroke-width="0" fill="#333333"></rect></g><g><path d="M141.92857142857142,314.9353125752L194.78571428571428,313.31966433056L247.64285714285714,311.71262300192L300.5,304.2148310576L353.35714285714283,291.59678453072L406.2142857142857,222.30087154544L459.07142857142856,115.78361893712002" stroke="#3366cc" stroke-width="3" fill-opacity="1" fill="none"></path></g></g><g><circle cx="141.92857142857142" cy="314.9353125752" r="4.5" stroke="none" stroke-width="0" fill="#3366cc"></circle><circle cx="194.78571428571428" cy="313.31966433056" r="4.5" stroke="none" stroke-width="0" fill="#3366cc"></circle><circle cx="247.64285714285714" cy="311.71262300192" r="4.5" stroke="none" stroke-width="0" fill="#3366cc"></circle><circle cx="300.5" cy="304.2148310576" r="4.5" stroke="none" stroke-width="0" fill="#3366cc"></circle><circle cx="353.35714285714283" cy="291.59678453072" r="4.5" stroke="none" stroke-width="0" fill="#3366cc"></circle><circle cx="406.2142857142857" cy="222.30087154544" r="4.5" stroke="none" stroke-width="0" fill="#3366cc"></circle><circle cx="459.07142857142856" cy="115.78361893712002" r="4.5" stroke="none" stroke-width="0" fill="#3366cc"></circle></g><g><g><text text-anchor="middle" x="141.92857142857142" y="335.05" font-family="Arial" font-size="13" stroke="none" stroke-width="0" fill="#222222">2</text></g><g><text text-anchor="middle" x="194.78571428571428" y="335.05" font-family="Arial" font-size="13" stroke="none" stroke-width="0" fill="#222222">3</text></g><g><text text-anchor="middle" x="247.64285714285714" y="335.05" font-family="Arial" font-size="13" stroke="none" stroke-width="0" fill="#222222">4</text></g><g><text text-anchor="middle" x="300.5" y="335.05" font-family="Arial" font-size="13" stroke="none" stroke-width="0" fill="#222222">5</text></g><g><text text-anchor="middle" x="353.35714285714283" y="335.05" font-family="Arial" font-size="13" stroke="none" stroke-width="0" fill="#222222">6</text></g><g><text text-anchor="middle" x="406.2142857142857" y="335.05" font-family="Arial" font-size="13" stroke="none" stroke-width="0" fill="#222222">7</text></g><g><text text-anchor="middle" x="459.07142857142856" y="335.05" font-family="Arial" font-size="13" stroke="none" stroke-width="0" fill="#222222">8</text></g><g><text text-anchor="end" x="102" y="320.05" font-family="Arial" font-size="13" stroke="none" stroke-width="0" fill="#444444">0</text></g><g><text text-anchor="end" x="102" y="272.05" font-family="Arial" font-size="13" stroke="none" stroke-width="0" fill="#444444">1</text></g><g><text text-anchor="end" x="102" y="224.05" font-family="Arial" font-size="13" stroke="none" stroke-width="0" fill="#444444">2</text></g><g><text text-anchor="end" x="102" y="176.05" font-family="Arial" font-size="13" stroke="none" stroke-width="0" fill="#444444">3</text></g><g><text text-anchor="end" x="102" y="128.05" font-family="Arial" font-size="13" stroke="none" stroke-width="0" fill="#444444">4</text></g><g><text text-anchor="end" x="102" y="80.05" font-family="Arial" font-size="13" stroke="none" stroke-width="0" fill="#444444">5</text></g></g></g><g><g><text text-anchor="middle" x="300.5" y="368.05" font-family="Arial" font-size="13" font-style="italic" stroke="none" stroke-width="0" fill="#222222">Calculation depth of the function</text><rect x="115" y="357" width="371" height="13" stroke="none" stroke-width="0" fill-opacity="0" fill="#ffffff"></rect></g><g><text text-anchor="middle" x="52.05" y="195.5" font-family="Arial" font-size="13" font-style="italic" transform="rotate(-90 52.05 195.5)" stroke="none" stroke-width="0" fill="#222222">Time spent (seconds)</text><path d="M40.99999999999999,316L41.00000000000001,75L54.00000000000001,75L53.99999999999999,316Z" stroke="none" stroke-width="0" fill-opacity="0" fill="#ffffff"></path></g></g><g></g></svg>